<?xml version="1.0" encoding="UTF-8"?>
<!DOCTYPE svg PUBLIC "-//W3C//DTD SVG 1.1//EN" "http://www.w3.org/Graphics/SVG/1.1/DTD/svg11.dtd">
<!-- Creator: CorelDRAW -->
<svg xmlns="http://www.w3.org/2000/svg" xml:space="preserve" width="0.606634in" height="0.356669in" style="shape-rendering:geometricPrecision; text-rendering:geometricPrecision; image-rendering:optimizeQuality; fill-rule:evenodd; clip-rule:evenodd"
viewBox="0 0 0.0518128 0.0304632"
 xmlns:xlink="http://www.w3.org/1999/xlink">
 <defs>
  <style type="text/css">
   <![CDATA[
    .fil0 {fill:#E77817}
   ]]>
  </style>
 </defs>
 <g id="Layer_x0020_1">
  <metadata id="CorelCorpID_0Corel-Layer"/>
  <path class="fil0" d="M0.00427152 0.026762l0.000555167 0.00109621 -0.000555167 0.000327182 0 0.000569626 0.000860156 0.000269009 0.000563237 1.5468e-005c0.000944894,0 0.00059451,0.000569626 0.00113892,0.000569626 1.37867e-005,0 0.0014318,-0.000992643 0.00170821,-0.00113892l0.000925727 0.000756251 0.00136657 0.000306334c0.000499348,-0.000268 0.000485897,-0.000493295 0.00112412,-0.000493295 0.000516161,0 0.000854103,0.000703458 0.000854103,0.00142373l0.000284813 0c0,-0.00112816 -0.000364843,-0.00227783 -0.00142373,-0.00227783l-0.00113858 0c-0.000860828,0 -0.000787187,-0.000334916 -0.000854103,-0.00113858 0.00160666,-0.000429069 0.00258652,-0.00213761 0.00427052,-0.00227783 0.000338615,-0.0005054 0.00142339,-0.00162919 0.00142339,-0.0022775l0 -0.00170821 0 -0.00056929c0.000667142,-0.00126098 0.00016275,-0.000756587 0.00142339,-0.00142373l0.00112782 0.000319784 0.00172973 -0.000567609 0.000843679 -3.66525e-005c0.000725651,0 0.00170821,0.000615358 0.00170821,0.00142339l0 0.00056929 0 0.000569626c0.000190324,0.000359463 0.00056929,0.000941195 0.00056929,0.00142339 0,0.000152999 -0.00228456,0.00346147 -0.00256231,0.0039857l-0.00056929 0 -0.000854103 0 -0.000554495 0.000309024 -0.000868899 -2.42108e-005 -0.000554495 -0.000309024 -0.00143852 2.42108e-005c-0.000787524,0 -0.000684628,0.000219915 -0.000854103,0.000854103 0.000910595,-0.000609641 0.000199403,-0.000467403 0.00142339,-0.00056929l0 0.00113892 0.000569626 0 0 0.00056929 0.00170821 0c0.000768693,0 0.000784833,0.000135849 0.00142339,0.000284813l0.000337942 -0.000833928c0.00188777,2.28658e-005 0.000834936,0.000549114 0.00193955,0.000549114 0.00107234,0 0.000538354,0.000187297 0.00170821,0.000284813l0 -0.000569626c0.00113623,2.55558e-005 0.00105418,0.000131478 0.00170821,0.000569626 -0.000192341,-0.00072128 -0.000549787,-0.00142373 -0.00142339,-0.00142373l-0.00142339 0c-0.000466058,0 -0.000854103,-0.000170484 -0.000854103,-0.00056929 0,-0.000954982 0.0023397,-0.00405901 0.0031316,-0.00427052l0.000559202 -0.0014281 1.00878e-005 -0.000564919 0 -0.00056929 -0.00123038 -0.00251759 0.000951619 0.000224286 -5.71644e-006 -0.000553822 0.000819805 0.00061065 3.42986e-005 -0.00061065c0.000611995,0.000409902 0.000955318,0.000885039 0.00142339,0.00142373l0.00034265 -0.00140893c0.00147383,-0.000568954 -0.000166113,-0.000599217 0.00136556,-0.00115338l0 -0.000854103c0.000916984,-0.000213862 0.00174452,-0.000597536 0.00284712,-0.000854103l-0.000618048 -0.000490941 0.00204144 -7.86851e-005 0.0028673 -0.000775754 0.000833928 -7.83488e-005 0.0102492 0 0.00113858 0 0.000833928 -0.000337606c0.00131814,0.000355428 0.000766003,0.00069337 0.00144391,-0.000231684l-0.00141129 -0.000348703 -1.24417e-005 -0.0005054 0.00113892 0 0.00141969 -0.000322138c-0.000743137,-0.000981882 -0.00193182,-0.000527257 -0.0031279,-0.00110126l-0.00142339 0 -0.00199302 0 -0.000554495 -0.000309024 -0.00257711 2.42108e-005 -0.000554495 -0.000309024 -0.00314673 2.42108e-005 -0.000854103 0c0.000326846,-0.000446218 5.24567e-005,-0.00056929 0.000854103,-0.00056929l0.00683283 0 0.00170821 0 0.00304215 0.000346013 -0.00104913 -0.000630826 -0.00371905 -0.000774409 -0.00112109 -7.96939e-005 -0.0062632 0c0.000662434,-0.00090387 0.00403581,-0.00142339 0.00569391,-0.00142339l0.00113892 0 0.00137598 -0.000370896 -0.00279971 -0.000483207 -0.00056929 0 -0.000554495 -0.000309024 -0.000868899 2.42108e-005 -0.00284712 0 -0.00170821 0 -0.000554495 -0.000309024 -0.00115371 2.45471e-005 -0.00112244 -0.000347021 0.00053869 -0.00026531c-0.00071859,-0.000957672 -0.0017304,-0.00108209 -0.00283266,-0.0016655l-0.00056929 0 -0.00227783 0 -0.000554158 -0.000309024 -0.00343154 2.45471e-005 -0.000854103 0 -0.000854103 0c-0.00175461,-0.000841998 -0.00406708,-0.00141667 -0.00569391,-0.00227783l-0.000569626 0 -0.00170821 0 -0.00170821 0 -0.000554158 0.000309024 -0.000584422 -2.42108e-005 -0.000569626 0c-0.0011369,0.000601571 -0.00235854,0.00091732 -0.00359396,0.00153032 -0.000683619,0.000339287 -0.00237299,0.00144424 -0.00318002,0.0019446 -0.000988608,0.000613004 -0.00218704,0.00135311 -0.00297927,0.00214568 -0.00150107,0.00150174 -0.00100273,0.00147249 -0.00191938,0.00320524l0 0.00056929c0,0.00197621 -5.48106e-005,0.00271262 0.000678575,0.00451397 0.000333907,0.000337942 0.000744818,0.000418645 0.000744818,0.00117994l0 0.00113892 0.000284813 0.00284712c0.000540035,0.00112513 0.000147619,0.00183599 0.00113892,0.00256231 2.58921e-005,-0.00116514 0.000170148,-0.00123845 0.00056929,-0.00199302 4.77491e-005,-0.00214097 0.0013057,-0.0039662 0.00170821,-0.00569391 0.00167693,0.000139548 0.000593837,0.00056929 0.00170821,0.00056929l0.00113892 0 0.00056929 0c0.00316758,0.00167593 0.0021746,0.000804 0.00370123,0.0039857l0 0.000854103 0 0.000569626 0.000346013 0.00198562 -0.00128519 0.000751207 0.000939177 0.000109957 0.000269009 0.000860156c-0.00176941,0.000938505 -0.00342213,0.00236728 -0.00539363,0.00341036l-0.000569626 0 -0.00056929 0 -0.00113051 -0.000584758 -0.000577697 1.5468e-005z"/>
 </g>
</svg>
